<svg xmlns="http://www.w3.org/2000/svg" viewBox="0 0 444.23 121.91"><defs><style>.cls-1{fill:#28a167;}.cls-2{fill:#02835e;}.cls-3{fill:#fff;}</style></defs><title>Artboard 3</title><g id="logo"><path class="cls-1" d="M66.56,65.79l.87-.15.37-.07.74-.15.43-.1.68-.16.47-.12.63-.17.5-.15a37,37,0,0,0,7-2.92,37.58,37.58,0,0,1-4.08-1.61l-7.77,5.62ZM56.4,73a21.31,21.31,0,0,0,1.71-1.71l-.6.24-.11,0-.59.21-.2.07-.58.18-.14,0-.73.2-.17,0-.57.14-.24.05-.61.12-.16,0-.49.09-6.51,2.67q-.8,2.37-1.88,4.77l.13-.05.52-.22.52-.23a45,45,0,0,0,9.12-5.37l.13-.1.46-.37.15-.12.34-.28L56,73.4l.41-.36Zm15.82-5.71-.09,0q-.84.25-1.68.47l-.22.05-.68.16-.19,0-.84.18-.15,0-.7.13-.24,0-.73.12-.11,0-.84.12-.21,0-.66.08h-.09c.66.67,1.37,1.36,2.09,2.06a12.3,12.3,0,0,0,2.61.95,29.59,29.59,0,0,0,6.93.84q1.28,0,2.5-.12a23.63,23.63,0,0,0,2.83-.44,24,24,0,0,0-2.61-1.81A28.64,28.64,0,0,0,72.22,67.32ZM61.94,70.79l-.12.19-.17.26-.19.28-.14.2-.14.2-.14.19-.15.2-.16.2-.15.18-.25.29-.2.23-.2.22-.18.19-.19.2-.19.2-.18.18-.22.21-.11.11q-.8.76-1.72,1.52l-.1.08a24.64,24.64,0,0,0-.67,5.64,22.54,22.54,0,0,0,.16,2.67A21.2,21.2,0,0,0,57,87a21.17,21.17,0,0,0,1.51-2,23.8,23.8,0,0,0,3.24-7.23c.06-.22.11-.42.16-.61a16.6,16.6,0,0,0,.46-3.78A10.28,10.28,0,0,0,62,70.65ZM23.29,85.11q1.08,0,2.22-.07A56.32,56.32,0,0,0,40.73,81.7,50.5,50.5,0,0,0,43,76.86L22.81,85.11ZM90.84,44a36.74,36.74,0,0,0-7.12,2.18,34.88,34.88,0,0,0-.6,4.13l7.95-5.74ZM92,47.34l-15.18,11a33.3,33.3,0,0,0,4.7,1.54l1-.73a37.34,37.34,0,0,0,9.81-10.52C92.25,48.18,92.13,47.76,92,47.34ZM69.38,20.77c-1.13-.56-2.29-1.06-3.48-1.52-.72,1.69-1.39,3.42-2,5.2A51.52,51.52,0,0,0,67.12,31Zm5.36,19,.13-.62a90.43,90.43,0,0,0,1.68-14,44,44,0,0,0-4.64-3.07l-5.07,23A64,64,0,0,0,74.73,39.78Zm-66,15.11a67.24,67.24,0,0,0,8.39,5.31c1.35.73,2.76,1.45,4.24,2.15a51.33,51.33,0,0,0,5.74-2.69Zm16,9A124.81,124.81,0,0,0,38.91,69l.16,0a32.23,32.23,0,0,0,9,1.34h1l.36,0,.61,0,.37,0,.62-.06.31,0,.88-.12.22,0,.68-.12.3-.06.58-.13.29-.07.67-.18.16,0,.81-.25,0,0h0l-.13,0h0l-.7-.22-.09,0-.15-.05-.5-.18-.16-.06-.23-.09-.42-.16-.17-.07-.2-.09-.47-.2-.1,0-.3-.14-.43-.2-.1,0-.36-.17L51,67.17l-.05,0-.39-.2h0l-.38-.2,0,0-.38-.21,0,0-.49-.28L48.88,66l-.1-.06-.19-.11-.26-.17-.27-.17-.15-.1-.4-.26,0,0L47.25,65l-.15-.1-.1-.07L30.94,60.65A57.19,57.19,0,0,1,24.8,63.91ZM16.51,50.38a45,45,0,0,0-8.39,1.49l11.12,2.89Q17.92,52.46,16.51,50.38ZM41.75,60.6l-.13-.12-.17-.16-.06-.06h0l-.07-.07-.47-.46-.22-.22-.08-.08-.32-.33-.36-.37-.05-.06-.55-.59-.13-.14,0,0-.58-.64-.08-.09,0,0,0,0,0,0,0,0-.53-.62-.15-.18-.06-.07L37,55.47l-.1-.13-.07-.09q-.43-.54-.84-1.09h0l-1.1-1.5-.55-.77-.44-.62a72.09,72.09,0,0,0-12.3-1.1h-1l-.83,0c1.12,1.74,2.2,3.58,3.21,5.52ZM30.91,76.08a61.37,61.37,0,0,0-6.44,4.49q-1.06.85-2,1.69L34.1,77.5Q32.5,76.74,30.91,76.08Zm13.24-3.14h-.11l-.48-.06-.1,0L43,72.77h-.09l-.5-.08h-.08l-.52-.09h-.06l-.54-.11h0q-1.17-.24-2.34-.57c-1.71.8-3.34,1.63-4.91,2.49q1.8.81,3.61,1.76L45,73l-.29,0h-.11Zm36.5-25.25a38.14,38.14,0,0,0-4.4,2.76q-1.41,1-2.7,2.15a56.44,56.44,0,0,1-2.77,5.52l0,0-.46.79-.06.11-.43.71-.09.14-.16.26,3.71-2.68h0l7-5A36.17,36.17,0,0,1,80.66,47.68ZM62.61,28.4q-1,3.46-1.8,7.1-.11.5-.21,1a62.19,62.19,0,0,0-1,7.57,45.57,45.57,0,0,1,3.2,6.75l.72-3.29h0l2.79-12.67A51.69,51.69,0,0,1,62.61,28.4ZM65,60.8c0,.34,0,.69,0,1,.34-.44.66-.89,1-1.35l0,0q.57-.81,1.11-1.66h0a52.82,52.82,0,0,0,4-7.55l.12-.28h0A59.39,59.39,0,0,0,73.69,44,70.67,70.67,0,0,1,66,48.74l-1.67,7.61,0,.11v0q.22,1.08.37,2.14v0q.14,1.06.21,2.09Z"/><path class="cls-2" d="M50,10.11a50,50,0,1,0,50,50A50.1,50.1,0,0,0,50,10.11Zm0,96.74A46.69,46.69,0,1,1,96.74,60.16,46.69,46.69,0,0,1,50,106.84ZM26.44,33.37a51.28,51.28,0,0,0,7.37,1.48l-3.14-4.34c-1.74-2.42-3.38-4.73-4.9-6.89-.94.63-1.86,1.3-2.74,2l.38,1Q24.78,30,26.44,33.37ZM17.18,47.56c1.08-.08,2.18-.13,3.3-.15h1.09a73.16,73.16,0,0,1,10.16.74,117,117,0,0,1-10.9-20.51l-.06-.15A43.83,43.83,0,0,0,7.57,49.18,48.34,48.34,0,0,1,17,47.57Zm5.56,30.85a65,65,0,0,1,7.27-5l.14-.08q2.27-1.36,4.77-2.63a121.78,121.78,0,0,1-14.18-5.57h0q-2.55-1.2-4.88-2.46a67.75,67.75,0,0,1-9.49-6.11c-.1,1.2-.16,2.4-.16,3.62a43.66,43.66,0,0,0,8.9,26.47l1.11-1.56A35,35,0,0,1,22.74,78.41Zm56.44-51A93.36,93.36,0,0,1,77.57,39.7c-.07.36-.15.71-.22,1.06v.06h0a65,65,0,0,1-1.87,6.79,40,40,0,0,1,14.26-6.17A44,44,0,0,0,79.19,27.37ZM45.88,27A117.61,117.61,0,0,1,56.21,39q.5.66,1,1.34.28-2.17.72-4.37c.07-.35.14-.71.22-1a93.85,93.85,0,0,1,3-10.84v0c.67-2,1.41-3.87,2.19-5.73a43.95,43.95,0,0,0-26.88.13,108.84,108.84,0,0,1,9.27,8.34A1.42,1.42,0,0,1,45.88,27Zm-.67,18.5c0-1,.06-1.9.06-2.83a54.71,54.71,0,0,0-1.69-14.07,105.22,105.22,0,0,0-10.2-9,43.59,43.59,0,0,0-5.26,2.59c1.49,2.12,3.1,4.37,4.79,6.73C36.68,34.14,40.88,39.85,45.21,45.49Zm-.84,13.76.36.32.4.34.36.31.14.12.25.2.36.29.17.13.25.19.35.27.12.09.31.23.36.26.09.07.34.24.43.29.35.23h0l.47.3.31.19.08,0,.4.25.13.08.25.15.42.24.35.19.41.22.35.19.41.2.15.08.2.1.42.19.08,0,.29.13.44.19.31.13.27.1.1,0,.35.13.31.11.08,0,.32.11.34.11.29.09.07,0,.37.11h0l.2.06.11,0,.37.1.2,0,.14,0,.34.08.23,0,.13,0,.67.12c-2.08-2.31-4.23-4.8-6.41-7.42a55.86,55.86,0,0,1-9.21-1l.19.18ZM93.2,52.33A40.55,40.55,0,0,1,76.32,65.82a30.34,30.34,0,0,1,4.23,2.1,25.23,25.23,0,0,1,4.95,3.85L87,73.33,85,74.05a24.7,24.7,0,0,1-5.81,1.24q-1.35.13-2.77.13A31.78,31.78,0,0,1,71.2,75c1.51,1.41,2.87,2.66,3.86,3.54l1.56,1.41,1,.92-1.84,2.06-1-.92s-2.41-2.15-5.4-4.93c-1.32-1.23-2.75-2.58-4.15-3.93l-.12-.06c0,.11,0,.21,0,.32a19.27,19.27,0,0,1-.54,4.41c-.06.25-.12.47-.18.68a26.49,26.49,0,0,1-3.62,8.07,22.54,22.54,0,0,1-3.5,4.07L55.78,92l-.72-1.9a22.61,22.61,0,0,1-1.29-5.34,25.18,25.18,0,0,1-.18-3,26.87,26.87,0,0,1,.21-3.31,51,51,0,0,1-7,3.78l-.54.24-.54.23a62.3,62.3,0,0,1-20.06,5.1q-1.22.07-2.39.07a27.27,27.27,0,0,1-6.3-.67l-1.79-.43a43.85,43.85,0,0,0,78-34.45ZM62,65.69a20.18,20.18,0,0,0,.24-3.19,29.59,29.59,0,0,0-1.48-8.86l0-.12-.15-.45-.06-.17-.15-.44,0-.13-.3-.82L60,51.29l-.14-.37-.11-.27-.15-.35L59.46,50l-.15-.35-.12-.27-.32-.7-.11-.23-.19-.4-.11-.22-.21-.43-.08-.16q-.56-1.09-1.2-2.17l-.21-.37h0A48,48,0,0,0,54,40.65q-3.25-4.33-6.77-8.21A62.91,62.91,0,0,1,48,42.66c0,2-.09,4-.26,6.14C52.59,55,57.49,60.94,62,65.89,62,65.83,62,65.76,62,65.69ZM45.2,50C42.06,46,39,41.84,36,37.84a52,52,0,0,1-7.9-1.2,119.27,119.27,0,0,0,7.69,12.55l0,0Q37,50.87,38.2,52.5l.29.38.36.47.22.27.45.56.24.29.05.06.39.46h0a48.25,48.25,0,0,0,10.44,1.85c-1.77-2.18-3.55-4.42-5.32-6.69Z"/><path class="cls-3" d="M50,13.47A46.69,46.69,0,1,0,96.74,60.16,46.69,46.69,0,0,0,50,13.47ZM43,76.86a50.5,50.5,0,0,1-2.22,4.84A56.32,56.32,0,0,1,25.52,85q-1.14.07-2.22.07h-.48ZM22.49,82.25q.93-.84,2-1.69a61.37,61.37,0,0,1,6.44-4.49q1.58.66,3.18,1.43Zm15-6.14q-1.81-.94-3.61-1.76c1.56-.86,3.2-1.7,4.91-2.49q1.17.33,2.34.57h0l.54.11h.06l.52.09h.08l.5.08H43l.49.07.1,0,.48.06h.11l.48.05h.11L45,73ZM27.13,59.66a51.33,51.33,0,0,1-5.74,2.69c-1.47-.7-2.89-1.42-4.24-2.15a67.24,67.24,0,0,1-8.39-5.31Zm-19-7.79a45,45,0,0,1,8.39-1.49q1.41,2.08,2.73,4.38ZM57,45.11q.64,1.08,1.2,2.17l.08.16.21.43.11.22.19.4.11.23.32.7.12.27.15.35.12.28.15.35.11.27.14.37.08.21.3.82,0,.13.15.44.06.17.15.45,0,.13a29.59,29.59,0,0,1,1.48,8.86A20.18,20.18,0,0,1,62,65.69c0,.07,0,.14,0,.2-4.52-5-9.41-10.91-14.24-17.1.17-2.09.26-4.14.26-6.14a62.91,62.91,0,0,0-.8-10.22q3.51,3.88,6.77,8.21a48,48,0,0,1,2.75,4.09h0Zm2.44,22L58.73,67l-.13,0-.23,0L58,66.88l-.14,0-.2,0-.37-.1-.11,0-.2-.06h0l-.37-.11-.07,0-.29-.09-.34-.11-.32-.11-.08,0L55.19,66l-.35-.13-.1,0-.27-.1-.31-.13-.44-.19-.29-.13-.08,0-.42-.19-.2-.1-.15-.08-.41-.2-.35-.19-.41-.22-.35-.19-.42-.24-.25-.15-.13-.08-.4-.25-.08,0-.31-.19-.47-.3h0l-.35-.23-.43-.29-.34-.24L47.8,62l-.36-.26-.31-.23L47,61.42l-.35-.27L46.4,61l-.17-.13-.36-.29-.25-.2-.14-.12-.36-.31-.4-.34-.36-.32L44,58.91l-.19-.18a55.86,55.86,0,0,0,9.21,1C55.18,62.35,57.33,64.84,59.41,67.15Zm-8.77-10.3A48.25,48.25,0,0,1,40.2,55h0l-.39-.46-.05-.06-.24-.29-.45-.56-.22-.27-.36-.47-.29-.38Q37,50.87,35.81,49.22l0,0a119.27,119.27,0,0,1-7.69-12.55,52,52,0,0,0,7.9,1.2c3,4,6.05,8.12,9.19,12.16l.12.16C47.09,52.42,48.87,54.67,50.64,56.85Zm-16.32-5,.55.77,1.1,1.5h0q.42.55.84,1.09l.07.09.1.13.59.72.06.07.15.18.53.63,0,0,0,0,0,0,0,0,.08.09.58.64,0,0,.13.14.55.59.05.06.36.37.32.33.08.08.22.22.47.46.07.07h0l.06.06.17.16.13.12L22.91,55.71c-1-1.93-2.09-3.78-3.21-5.52l.83,0h1a72.09,72.09,0,0,1,12.3,1.1Zm-3.38,8.77L47,64.82l.1.07.15.1.24.16,0,0,.4.26.15.1.27.17.26.17.19.11.1.06.29.17.49.28,0,0,.38.21,0,0,.38.2h0l.39.2.05,0,.41.21.36.17.1,0,.43.2.3.14.1,0,.47.2.2.09.17.07.42.16.23.09.16.06.5.18.15.05.09,0,.7.22h0l.13,0h0l0,0-.81.25-.16,0-.67.18-.29.07-.58.13-.3.06-.68.12-.22,0-.88.12-.31,0-.62.06-.37,0-.61,0-.36,0h-1a32.23,32.23,0,0,1-9-1.34l-.16,0A124.81,124.81,0,0,1,24.8,63.91,57.19,57.19,0,0,0,30.94,60.65Zm15.47,14.8,6.51-2.67.49-.09.16,0,.61-.12.24-.05.57-.14.17,0,.73-.2.14,0,.58-.18.2-.07.59-.21.11,0,.6-.24A21.31,21.31,0,0,1,56.4,73h0L56,73.4l-.08.07-.34.28-.15.12-.46.37-.13.1a45,45,0,0,1-9.12,5.37l-.52.23-.52.22-.13.05Q45.61,77.82,46.41,75.45ZM57,76.12l.1-.08q.92-.76,1.72-1.52l.11-.11.22-.21.18-.18.19-.2.19-.2.18-.19.2-.22.2-.23.25-.29.15-.18.16-.2.15-.2.14-.19.14-.2.14-.2.19-.28.17-.26.12-.19.08-.14a10.28,10.28,0,0,1,.33,2.74,16.6,16.6,0,0,1-.46,3.78c0,.19-.1.39-.16.61A23.8,23.8,0,0,1,58.49,85,21.17,21.17,0,0,1,57,87a21.2,21.2,0,0,1-.46-2.56,22.54,22.54,0,0,1-.16-2.67A24.64,24.64,0,0,1,57,76.12Zm2.54-32a62.19,62.19,0,0,1,1-7.57q.1-.51.21-1,.77-3.64,1.8-7.1a51.69,51.69,0,0,0,3.66,6.47L63.49,47.54h0l-.72,3.29A45.57,45.57,0,0,0,59.56,44.08ZM66,48.74A70.67,70.67,0,0,0,73.69,44a59.39,59.39,0,0,1-2.42,6.9h0l-.12.28a52.82,52.82,0,0,1-4,7.55h0q-.54.85-1.11,1.66l0,0c-.32.46-.65.91-1,1.35,0-.34,0-.68,0-1v0q-.06-1-.21-2.09v0q-.15-1.06-.37-2.14v0l0-.11Zm10.21,1.69a38.14,38.14,0,0,1,4.4-2.76,36.17,36.17,0,0,0-.4,4.74l-7,5h0l-3.71,2.68.16-.26.09-.14.43-.71.06-.11.46-.79,0,0a56.44,56.44,0,0,0,2.77-5.52Q74.84,51.46,76.26,50.44ZM64.87,68.8l.66-.08.21,0,.84-.12.11,0,.73-.12.24,0,.7-.13.15,0,.84-.18.19,0,.68-.16.22-.05q.84-.21,1.68-.47l.09,0a28.64,28.64,0,0,1,6.91,3,24,24,0,0,1,2.61,1.81,23.63,23.63,0,0,1-2.83.44q-1.22.12-2.5.12a29.59,29.59,0,0,1-6.93-.84,12.3,12.3,0,0,1-2.61-.95c-.72-.7-1.42-1.39-2.09-2.06Zm6.38-4.08-.5.15-.63.17-.47.12-.68.16-.43.1-.74.15-.37.07-.87.15-.11,0,7.77-5.62A37.58,37.58,0,0,0,78.3,61.8,37,37,0,0,1,71.25,64.72Zm5.57-6.41L92,47.34c.13.42.25.84.36,1.27a37.34,37.34,0,0,1-9.81,10.52l-1,.73A33.3,33.3,0,0,1,76.83,58.31ZM91.07,44.61l-7.95,5.74a34.88,34.88,0,0,1,.6-4.13A36.74,36.74,0,0,1,90.84,44Zm-1.34-3.16a40,40,0,0,0-14.26,6.17,65,65,0,0,0,1.87-6.79h0v-.06c.07-.35.15-.7.22-1.06a93.36,93.36,0,0,0,1.62-12.33A44,44,0,0,1,89.73,41.44ZM74.86,39.16l-.13.62a64,64,0,0,1-7.89,5.36l5.07-23a44,44,0,0,1,4.64,3.07A90.43,90.43,0,0,1,74.86,39.16ZM67.12,31a51.52,51.52,0,0,1-3.24-6.57c.62-1.78,1.3-3.51,2-5.2,1.19.46,2.35,1,3.48,1.52ZM50,16.28a43.82,43.82,0,0,1,13.24,2c-.78,1.86-1.52,3.76-2.19,5.73v0a93.85,93.85,0,0,0-3,10.84c-.08.34-.15.7-.22,1q-.44,2.2-.72,4.37-.47-.67-1-1.34A117.61,117.61,0,0,0,45.88,27a1.42,1.42,0,0,0-.2-.19,108.84,108.84,0,0,0-9.27-8.34A43.8,43.8,0,0,1,50,16.28ZM33.37,19.57a105.22,105.22,0,0,1,10.2,9,54.71,54.71,0,0,1,1.69,14.07c0,.93,0,1.87-.06,2.83-4.32-5.63-8.53-11.35-12.3-16.59-1.7-2.36-3.3-4.62-4.79-6.73A43.59,43.59,0,0,1,33.37,19.57Zm-7.61,4c1.52,2.16,3.16,4.47,4.9,6.89l3.14,4.34a51.28,51.28,0,0,1-7.37-1.48q-1.66-3.39-3-6.78l-.38-1C23.91,24.92,24.82,24.25,25.76,23.62Zm-5,3.86.06.15a117,117,0,0,0,10.9,20.51,73.16,73.16,0,0,0-10.16-.74H20.49c-1.12,0-2.22.07-3.3.15H17a48.34,48.34,0,0,0-9.46,1.61A43.83,43.83,0,0,1,20.78,27.48Zm-14.43,29a67.75,67.75,0,0,0,9.49,6.11q2.32,1.26,4.88,2.46h0a121.78,121.78,0,0,0,14.18,5.57q-2.5,1.27-4.77,2.63l-.14.08a65,65,0,0,0-7.27,5,35,35,0,0,0-6.55,6.65l-1.11,1.56a43.66,43.66,0,0,1-8.9-26.47C6.19,58.92,6.25,57.71,6.35,56.52ZM50,104A43.78,43.78,0,0,1,15.21,86.78l1.79.43a27.27,27.27,0,0,0,6.3.67q1.17,0,2.39-.07a62.3,62.3,0,0,0,20.06-5.1l.54-.23.54-.24a51,51,0,0,0,7-3.78,26.87,26.87,0,0,0-.21,3.31,25.18,25.18,0,0,0,.18,3,22.61,22.61,0,0,0,1.29,5.34l.72,1.9,1.5-1.37a22.54,22.54,0,0,0,3.5-4.07,26.49,26.49,0,0,0,3.62-8.07c.05-.21.12-.43.18-.68a19.27,19.27,0,0,0,.54-4.41c0-.11,0-.21,0-.32l.12.06c1.4,1.35,2.83,2.7,4.15,3.93,3,2.79,5.39,4.93,5.4,4.93l1,.92,1.84-2.06-1-.92-1.56-1.41c-1-.89-2.35-2.14-3.86-3.54a31.78,31.78,0,0,0,5.21.44q1.41,0,2.77-.13A24.7,24.7,0,0,0,85,74.05L87,73.33,85.5,71.78a25.23,25.23,0,0,0-4.95-3.85,30.34,30.34,0,0,0-4.23-2.1A40.55,40.55,0,0,0,93.2,52.33,43.83,43.83,0,0,1,50,104Z"/><path class="cls-2" d="M165,35.67l-18.61,49h11.87l3.77-11.8h15.85l3.62,11.8h12.09l-18-49Zm-.22,28.38q.72-2.1,1.48-4.35t1.45-4.41q.69-2.17,1.27-4.09t1-3.29q.44,1.3,1,3.22t1.27,4.09q.69,2.17,1.45,4.45t1.49,4.38ZM138.9,76a20,20,0,0,1-5,.62,8.75,8.75,0,0,1-4.81-1.23A8.94,8.94,0,0,1,126,72a16.37,16.37,0,0,1-1.63-5.25,44.87,44.87,0,0,1-.47-6.77q0-7.74,2.14-12.12a7.13,7.13,0,0,1,6.84-4.38,9.28,9.28,0,0,1,3.76.83,11.32,11.32,0,0,1,3.91,3.29L147.11,41a22.4,22.4,0,0,0-2.28-2.25,14.36,14.36,0,0,0-2.93-1.92A17.34,17.34,0,0,0,138,35.53a23,23,0,0,0-5.1-.51,22.57,22.57,0,0,0-9.66,1.92,18.6,18.6,0,0,0-6.81,5.36,23.3,23.3,0,0,0-4.05,8.14,37.69,37.69,0,0,0-1.34,10.35q0,11.65,5.14,18t16.29,6.33a37.85,37.85,0,0,0,7.82-.72A32,32,0,0,0,146,82.73l-2.6-8.11A37.16,37.16,0,0,1,138.9,76ZM273.39,54.42c0,.77,0,1.66.07,2.68s.11,2.06.18,3.15.14,2.13.18,3.15.1,1.91.14,2.68c-.34-.58-.75-1.26-1.23-2.06s-1-1.63-1.56-2.5l-1.63-2.57-1.45-2.28L254,35.67h-9.77v49h11.94l-.22-18.82q0-1-.07-2.53c0-1-.11-2.05-.18-3.11s-.14-2.11-.22-3.15-.13-1.92-.18-2.64q.51.8,1.27,2.06t1.59,2.6l1.59,2.57q.76,1.24,1.19,1.88l14,21.14h10.21v-49H273.17Zm-48,0c0,.77,0,1.66.07,2.68s.11,2.06.18,3.15.13,2.13.18,3.15.1,1.91.14,2.68c-.34-.58-.75-1.26-1.23-2.06s-1-1.63-1.55-2.5l-1.63-2.57-1.45-2.28L206,35.67h-9.77v49h11.94l-.22-18.82q0-1-.07-2.53c0-1-.11-2.05-.18-3.11s-.15-2.11-.22-3.15-.13-1.92-.18-2.64q.51.8,1.27,2.06t1.59,2.6l1.59,2.57q.76,1.24,1.19,1.88l14,21.14h10.21v-49H225.13ZM402.79,60.5a14.26,14.26,0,0,0-3.58-3A41.89,41.89,0,0,0,394.14,55a38.27,38.27,0,0,1-3.91-1.81,13.79,13.79,0,0,1-2.6-1.77,6.84,6.84,0,0,1-1.52-1.84,5.12,5.12,0,0,1-.58-2.17,3.33,3.33,0,0,1,1.23-2.64,5.71,5.71,0,0,1,3.77-1,10.16,10.16,0,0,1,2.86.43,21.07,21.07,0,0,1,2.9,1.09q1.41.65,2.64,1.34c.82.46,1.52.83,2.1,1.12l4.2-8a21.66,21.66,0,0,0-2.93-1.7,27,27,0,0,0-3.8-1.49A38.68,38.68,0,0,0,394,35.46a28.54,28.54,0,0,0-5-.43,19.37,19.37,0,0,0-6.19,1,16,16,0,0,0-5.18,2.82A14.08,14.08,0,0,0,374,43.24a12.38,12.38,0,0,0-1.34,5.83,13.89,13.89,0,0,0,.9,5.21,12.88,12.88,0,0,0,2.61,4.06,18.54,18.54,0,0,0,4.16,3.26A43.33,43.33,0,0,0,386,64.34,22.16,22.16,0,0,1,391,67a4.64,4.64,0,0,1,1.77,3.95,5.45,5.45,0,0,1-1.41,4,6.1,6.1,0,0,1-4.46,1.41,9.78,9.78,0,0,1-3.26-.65q-1.8-.65-3.54-1.48c-1.16-.55-2.2-1.11-3.11-1.67s-1.55-1-1.88-1.19L371.2,79.9q1.3.8,3.11,1.7a38.5,38.5,0,0,0,4,1.7,31.65,31.65,0,0,0,4.74,1.3,28,28,0,0,0,5.39.51,19.82,19.82,0,0,0,7.17-1.23,15.94,15.94,0,0,0,5.43-3.4,14.76,14.76,0,0,0,3.44-5.1,16.43,16.43,0,0,0,1.19-6.26,14.93,14.93,0,0,0-.72-4.85A11.73,11.73,0,0,0,402.79,60.5Zm5-24.83v8.76h11.66V84.68h11.94V44.43h11.29l1.52-8.76ZM349.57,63.54H364.2l1.38-8.61h-16V44.43h19.25V35.67h-31.2v49h32.21V75.92H349.57Zm-35.44-.67-2.75,7.39-2.75-7.39L298.49,35.67H288l18.31,49h10.13l18.31-49h-10.5Z"/><polygon class="cls-3" points="305.39 35.24 305.55 35.67 311.38 51.32 317.2 35.67 317.36 35.24 305.39 35.24"/><polygon class="cls-3" points="322.69 35.67 321.12 35.67 311.38 61.84 301.63 35.67 300.06 35.67 298.49 35.67 308.62 62.87 311.38 70.26 314.13 62.87 324.26 35.67 322.69 35.67"/><path class="cls-1" d="M300.1,31.57l1.53,4.11,9.75,26.17,9.75-26.17,1.53-4.11Zm11.28,19.75-5.83-15.64-.16-.43h12l-.16.43Z"/></g></svg>